<svg xmlns="http://www.w3.org/2000/svg" viewBox="0 0 1889 631" role="img" aria-label="Äura">
<path d="M0 0 C7.368 5.933 13 13.002 14.196 22.574 C15.116 33.026 14.362 41.846 7.945 50.566 C2.085 57.328 -7.191 63.128 -16.242 63.805 C-29.55 64.064 -38.905 61.092 -48.738 52.012 C-54.86 45.631 -57.244 37.785 -57.555 29.066 C-57.132 17.894 -52.87 9.482 -45.055 1.566 C-32.256 -9.151 -13.607 -9.228 0 0 Z " fill="#ffffff" transform="translate(300.0546875,24.43359375)"/>
<path d="M0 0 C6.467 5.288 10.409 11.786 13.035 19.664 C13.68 28.971 13.81 37.356 9.035 45.664 C8.634 46.369 8.233 47.074 7.82 47.801 C2.878 55.321 -5.332 60.405 -13.965 62.664 C-25.13 64.08 -34.466 63.074 -43.965 56.664 C-44.27 56.473 -44.27 56.473 -45.816 55.504 C-52.202 50.936 -56.68 42.247 -57.965 34.664 C-58.929 23.355 -57.06 13.487 -49.805 4.516 C-35.925 -9.453 -16.058 -11.498 0 0 Z " fill="#ffffff" transform="translate(423.96484375,25.3359375)"/>
<path d="M0 0 C0.66 0 1.32 0 2 0 C8.687 13.906 15.287 27.85 21.842 41.818 C27.122 53.065 32.492 64.264 37.919 75.441 C41.893 83.648 45.751 91.904 49.562 100.188 C54.22 110.303 59.1 120.28 64.127 130.216 C68.063 138.03 71.789 145.924 75.438 153.875 C80.388 164.657 85.583 175.286 90.923 185.88 C94.399 192.782 97.813 199.705 101.125 206.688 C106.333 217.666 111.664 228.583 117 239.5 C122.682 251.127 128.351 262.759 133.91 274.445 C138.058 283.154 142.28 291.826 146.5 300.5 C152.15 312.116 157.768 323.747 163.328 335.406 C166.916 342.928 170.539 350.433 174.158 357.94 C177.226 364.305 180.279 370.678 183.316 377.059 C212.518 438.353 212.518 438.353 234 463 C234.669 463.813 235.338 464.627 236.027 465.465 C254.233 486.925 278.821 498.975 306.175 503.615 C308 504 308 504 310 505 C310 506.32 310 507.64 310 509 C235.42 509 160.84 509 84 509 C83.67 507.68 83.34 506.36 83 505 C87.269 503.739 91.54 502.639 95.875 501.625 C108.683 498.419 119.813 492.413 127.184 481.199 C133.453 470.107 133.18 455.987 130.012 443.957 C126.256 431.263 120.283 419.372 114.623 407.449 C112.975 403.947 111.365 400.431 109.766 396.906 C109.502 396.328 109.502 396.328 108.17 393.4 C107.172 391.203 106.176 389.004 105.185 386.803 C95.409 365.424 81.698 353.662 60 345 C45.087 339.582 29.819 337.471 14 337 C13.176 336.975 12.351 336.95 11.502 336.925 C-0.517 336.751 -12.512 337.74 -24.5 338.5 C-98.329 343.179 -98.329 343.179 -123.375 321.625 C-127.762 317.46 -131.489 312.917 -135 308 C-137.582 311.209 -139.414 314.556 -141.266 318.23 C-141.576 318.845 -141.886 319.46 -142.206 320.093 C-143.226 322.122 -144.239 324.154 -145.25 326.188 C-145.6 326.89 -145.95 327.592 -146.311 328.316 C-158.112 352.034 -169.263 375.966 -178 401 C-178.297 401.836 -178.595 402.672 -178.901 403.533 C-186.957 426.234 -192.504 450.625 -184 474 C-178.158 486.244 -168.529 494.136 -156 499 C-149.495 501.049 -142.853 502.65 -136.082 503.48 C-135.065 503.652 -134.048 503.823 -133 504 C-132.67 504.66 -132.34 505.32 -132 506 C-132.33 506.99 -132.66 507.98 -133 509 C-194.38 509 -255.76 509 -319 509 C-319 507.35 -319 505.7 -319 504 C-318.091 503.853 -317.182 503.706 -316.246 503.555 C-283.462 497.704 -258.325 476.164 -239 450 C-238.521 449.354 -238.041 448.709 -237.547 448.043 C-214.721 417.089 -197.157 381.957 -179.5 347.891 C-177.009 343.089 -174.504 338.295 -172 333.5 C-170.997 331.578 -169.995 329.656 -168.992 327.734 C-167.019 323.953 -165.045 320.171 -163.07 316.391 C-157.053 304.868 -151.06 293.334 -145.084 281.791 C-141.625 275.116 -138.14 268.457 -134.625 261.812 C-129.962 252.988 -125.497 244.072 -121.073 235.126 C-114.899 222.654 -108.468 210.322 -102 198 C-101.543 197.128 -101.085 196.256 -100.614 195.358 C-99.327 192.905 -98.039 190.452 -96.75 188 C-96.342 187.223 -95.933 186.446 -95.513 185.646 C-93.654 182.116 -91.785 178.592 -89.883 175.086 C-86.434 168.72 -83.165 162.322 -80.125 155.75 C-77.058 149.129 -73.776 142.66 -70.349 136.219 C-66.337 128.671 -62.408 121.082 -58.493 113.483 C-57.762 112.064 -57.03 110.644 -56.298 109.225 C-51.119 99.189 -46.028 89.112 -41 79 C-40.737 78.472 -40.737 78.472 -39.409 75.8 C-38.926 74.828 -38.443 73.856 -37.945 72.855 C-33.142 63.194 -28.297 53.563 -23.231 44.036 C-20.245 38.405 -17.319 32.745 -14.41 27.074 C-14.003 26.281 -13.596 25.488 -13.177 24.671 C-11.109 20.638 -9.043 16.603 -6.98 12.567 C-6.215 11.073 -5.449 9.58 -4.684 8.086 C-4.327 7.386 -3.97 6.686 -3.602 5.964 C-1.113 1.113 -1.113 1.113 0 0 Z M-33 96 C-39.386 107.893 -45.485 119.917 -51.5 132 C-57.124 143.293 -62.823 154.531 -68.759 165.664 C-73.229 174.08 -77.62 182.538 -82 191 C-82.358 191.691 -82.715 192.381 -83.084 193.093 C-87.689 202.026 -92.007 211.103 -96.303 220.188 C-96.923 221.498 -97.547 222.807 -98.173 224.114 C-106.466 241.447 -113.282 261.268 -107.438 280.5 C-101.809 294.83 -91.224 304.363 -77.469 310.602 C-58.064 318.727 -37.217 318.619 -16.521 319.664 C18.933 321.464 53.828 326.816 83.363 347.969 C85 349 85 349 87 349 C84.792 341.565 81.6 334.773 78.163 327.843 C71.758 314.918 65.682 301.866 59.833 288.681 C56.63 281.493 53.251 274.432 49.701 267.41 C47.011 262.017 44.511 256.54 42 251.062 C37.277 240.82 32.438 230.641 27.5 220.5 C22.856 210.961 18.302 201.392 13.875 191.75 C7.799 178.532 1.397 165.48 -5.014 152.422 C-10.712 140.809 -16.319 129.175 -21.64 117.384 C-24.904 110.155 -28.364 103.049 -32 96 C-32.33 96 -32.66 96 -33 96 Z " fill="#ffffff" transform="translate(338,92)"/>
<path d="M0 0 C4.166 1.492 5.225 3.759 7.102 7.652 C7.385 8.232 7.385 8.232 8.82 11.163 C9.114 11.779 9.408 12.394 9.711 13.027 C10.948 15.613 12.211 18.185 13.473 20.759 C14.105 22.049 14.736 23.341 15.366 24.633 C17.778 29.577 20.285 34.46 22.875 39.312 C27.32 47.672 31.665 56.082 36 64.5 C40.695 73.615 45.409 82.718 50.203 91.781 C54.35 99.634 58.417 107.529 62.491 115.42 C66.257 122.712 70.036 129.996 73.875 137.25 C80.267 149.338 86.488 161.515 92.743 173.674 C96.361 180.704 99.991 187.728 103.625 194.75 C103.93 195.34 104.236 195.93 104.55 196.538 C106.086 199.505 107.621 202.472 109.157 205.439 C112.586 212.065 116.013 218.691 119.44 225.318 C120.379 227.134 121.319 228.95 122.258 230.766 C122.568 231.365 122.877 231.963 123.197 232.581 C125.357 236.757 127.518 240.933 129.68 245.109 C130.603 246.893 131.526 248.677 132.449 250.461 C133.066 251.652 133.682 252.843 134.299 254.034 C137.992 261.167 141.673 268.307 145.336 275.457 C159.028 302.168 159.028 302.168 165.251 313.162 C168.29 318.564 171.07 324.085 173.828 329.633 C211.962 406.35 211.962 406.35 238 437 C238.678 437.802 239.356 438.604 240.055 439.43 C261.383 464.078 292.938 480.2 325.34 482.887 C325.888 482.924 326.436 482.961 327 483 C327.33 484.65 327.66 486.3 328 488 C252.43 488 176.86 488 99 488 C99.33 486.35 99.66 484.7 100 483 C100.895 482.841 101.789 482.683 102.711 482.52 C113.259 480.484 123.776 477.492 131 469 C138.925 456.197 138.246 441.965 135.145 427.672 C131.107 414.72 124.546 402.598 118.581 390.453 C118.202 389.68 117.822 388.908 117.432 388.112 C116.673 386.568 115.915 385.024 115.155 383.481 C113.005 379.097 110.921 374.691 108.898 370.246 C99.705 350.288 86.258 339.429 65.888 331.449 C46.838 324.456 26.868 322.794 6.75 322.812 C6.345 322.812 6.345 322.812 4.295 322.81 C-8.075 322.812 -20.302 323.347 -32.637 324.28 C-61.351 326.416 -94.963 326.896 -118.562 307.625 C-121.328 304.901 -123.516 301.968 -125.715 298.773 C-126.334 297.878 -126.952 296.983 -127.59 296.06 C-128.055 295.38 -128.52 294.7 -129 294 C-183.019 389.326 -183.019 389.326 -183.25 434.25 C-183.271 435.236 -183.291 436.222 -183.312 437.238 C-183.354 445.202 -182.735 453.349 -177.188 459.5 C-154.522 479.69 -125.292 489.583 -95 488 C-84.931 487.198 -74.933 485.831 -65 484 C-66 487 -66 487 -68.719 488.43 C-116.422 507.514 -174.428 502.824 -221.048 483.115 C-241.132 474.334 -258.663 462.539 -275 448 C-275.605 447.464 -276.21 446.927 -276.833 446.375 C-286.004 438.185 -294.29 429.575 -302 420 C-302.213 419.738 -302.213 419.738 -303.291 418.413 C-322.176 395.05 -337.056 368.31 -351.594 342.113 C-363.135 321.339 -374.737 301.1 -390.729 283.408 C-391.775 282.249 -392.801 281.072 -393.82 279.891 C-403.247 269.564 -417.957 261.608 -431.934 260.762 C-444.847 260.446 -455.655 262.461 -467.328 268.363 C-467.88 268.573 -468.432 268.784 -469 269 C-469.66 268.67 -470.32 268.34 -471 268 C-463.475 258.631 -454.997 251.849 -444 247 C-443.19 246.615 -442.381 246.229 -441.547 245.832 C-433.745 242.307 -425.63 240.074 -417.415 237.725 C-396.838 231.826 -375.579 225.642 -358 213 C-356.978 212.273 -355.956 211.546 -354.902 210.797 C-331.729 193.892 -317.57 172.328 -312.438 143.883 C-309.448 117.349 -313.589 90.535 -330.266 69.086 C-332.435 66.636 -334.689 64.315 -337 62 C-337.319 61.634 -337.319 61.634 -338.934 59.781 C-361.31 35.006 -397.078 30.038 -428.521 28.375 C-439.2 27.852 -449.877 27.911 -460.566 27.949 C-462.56 27.953 -464.554 27.957 -466.548 27.96 C-471.365 27.969 -476.183 27.983 -481 28 C-481.023 75.398 -481.041 122.797 -481.051 170.195 C-481.052 175.8 -481.054 181.404 -481.055 187.009 C-481.055 188.124 -481.055 189.24 -481.056 190.39 C-481.06 208.42 -481.068 226.45 -481.077 244.48 C-481.087 263.001 -481.092 281.522 -481.094 300.043 C-481.095 311.457 -481.1 322.872 -481.108 334.287 C-481.113 342.13 -481.115 349.973 -481.114 357.817 C-481.113 362.332 -481.114 366.847 -481.119 371.362 C-481.2 442.305 -481.2 442.305 -468.016 461.414 C-467 463 -467 463 -466 466 C-464.16 467.012 -464.16 467.012 -462 468 C-460.795 468.915 -459.608 469.854 -458.438 470.812 C-447.769 478.799 -435.845 480.775 -423 483 C-423 484.65 -423 486.3 -423 488 C-485.7 488 -548.4 488 -613 488 C-613 486.35 -613 484.7 -613 483 C-612.492 482.921 -612.492 482.921 -609.922 482.52 C-594.971 480.045 -580.536 475.483 -570.625 463.301 C-560.041 448.316 -557.813 429.867 -557.886 411.96 C-557.886 411.487 -557.886 411.487 -557.886 409.089 C-557.887 405.994 -557.894 402.899 -557.902 399.805 C-557.904 397.644 -557.906 395.484 -557.907 393.323 C-557.91 387.665 -557.92 382.006 -557.931 376.348 C-557.942 370.563 -557.946 364.777 -557.951 358.992 C-557.962 347.661 -557.979 336.331 -558 325 C-558.216 325.202 -558.216 325.202 -559.307 326.224 C-561.278 328.069 -563.25 329.913 -565.223 331.758 C-565.901 332.393 -566.579 333.028 -567.278 333.683 C-570.618 336.804 -573.966 339.899 -577.438 342.875 C-580.716 345.693 -583.748 348.703 -586.75 351.812 C-588.644 353.654 -590.574 355.367 -592.578 357.086 C-597.876 361.689 -602.8 366.654 -607.75 371.625 C-608.682 372.553 -609.614 373.481 -610.574 374.438 C-611.473 375.337 -612.371 376.237 -613.297 377.164 C-614.105 377.973 -614.913 378.782 -615.745 379.616 C-617.981 381.98 -619.987 384.446 -622 387 C-623.643 388.69 -625.315 390.352 -627 392 C-632.583 397.478 -637.914 403.059 -643 409 C-644.431 410.672 -645.869 412.338 -647.312 414 C-647.641 414.382 -647.641 414.382 -649.301 416.312 C-651 418 -651 418 -653 418 C-653.253 418.577 -653.505 419.155 -653.766 419.749 C-655.15 422.273 -656.715 423.974 -658.746 426.012 C-659.495 426.765 -660.245 427.519 -661.017 428.295 C-661.416 428.69 -661.416 428.69 -663.438 430.688 C-664.256 431.499 -665.074 432.31 -665.917 433.146 C-671.69 438.822 -677.501 444.159 -684 449 C-685.049 449.793 -686.099 450.586 -687.18 451.402 C-705.23 464.804 -724.513 474.46 -746 481 C-747.143 481.36 -748.287 481.719 -749.465 482.09 C-801.075 497.202 -860.616 487.022 -907.292 461.944 C-911.684 459.516 -915.865 456.838 -920 454 C-920.549 453.626 -921.098 453.252 -921.664 452.867 C-928.766 448.008 -935.457 442.968 -941.762 437.086 C-943.855 435.136 -946.003 433.284 -948.188 431.438 C-978.817 404.676 -998.276 361.994 -1001.225 321.941 C-1001.565 314.823 -1001.543 307.708 -1001.514 300.584 C-1001.52 298.263 -1001.527 295.942 -1001.536 293.621 C-1001.551 288.681 -1001.554 283.74 -1001.547 278.8 C-1001.536 270.971 -1001.554 263.143 -1001.575 255.315 C-1001.602 244.331 -1001.616 233.347 -1001.619 222.363 C-1001.619 221.67 -1001.62 220.977 -1001.62 220.263 C-1001.62 219.916 -1001.62 219.916 -1001.62 218.16 C-1001.623 208.304 -1001.63 198.449 -1001.642 188.594 C-1001.642 187.899 -1001.643 187.204 -1001.644 186.489 C-1001.658 174.863 -1001.68 163.238 -1001.705 151.613 C-1001.722 143.846 -1001.727 136.079 -1001.724 128.312 C-1001.723 123.471 -1001.731 118.63 -1001.741 113.789 C-1001.743 111.561 -1001.743 109.333 -1001.738 107.105 C-1001.692 82.639 -1002.135 57.484 -1019 38 C-1030.764 27.941 -1045.057 24.409 -1060 22 C-1060 20.35 -1060 18.7 -1060 17 C-996.31 17 -932.62 17 -867 17 C-867.33 18.65 -867.66 20.3 -868 22 C-869.004 22.159 -870.008 22.317 -871.043 22.48 C-886.972 25.138 -901.513 29.707 -912.219 42.473 C-920.442 54.14 -922.911 69.552 -924.097 83.5 C-924.14 84 -924.14 84 -924.355 86.528 C-925.249 97.914 -925.281 109.275 -925.259 120.689 C-925.262 123.064 -925.265 125.439 -925.269 127.814 C-925.278 134.192 -925.275 140.57 -925.269 146.948 C-925.266 150.95 -925.266 154.952 -925.268 158.954 C-925.268 159.289 -925.268 159.289 -925.269 160.983 C-925.269 162.343 -925.27 163.704 -925.271 165.065 C-925.276 177.758 -925.27 190.45 -925.259 203.142 C-925.25 213.971 -925.252 224.799 -925.261 235.627 C-925.272 248.276 -925.276 260.926 -925.27 273.576 C-925.269 274.932 -925.268 276.288 -925.268 277.644 C-925.267 278.311 -925.267 278.978 -925.267 279.665 C-925.265 284.303 -925.268 288.942 -925.273 293.581 C-925.278 299.858 -925.274 306.135 -925.263 312.412 C-925.26 314.692 -925.261 316.973 -925.265 319.253 C-925.336 358.723 -923.509 400.797 -898 433 C-897.52 433.633 -897.041 434.266 -896.547 434.918 C-885.573 448.698 -868.268 458.006 -852 464 C-851.299 464.259 -850.598 464.518 -849.876 464.785 C-819.518 475.745 -784.313 476.487 -753 469 C-752.14 468.796 -751.279 468.593 -750.393 468.383 C-727.189 462.657 -707.08 451.466 -689 436 C-688.167 435.314 -687.335 434.628 -686.477 433.922 C-661.035 412.252 -649.239 379.452 -646 347 C-645.958 346.583 -645.958 346.583 -645.748 344.474 C-644.846 334.307 -644.852 324.18 -644.855 313.982 C-644.852 311.988 -644.848 309.994 -644.845 308 C-644.836 302.612 -644.833 297.225 -644.833 291.838 C-644.832 288.456 -644.83 285.075 -644.827 281.694 C-644.818 269.854 -644.814 258.013 -644.815 246.172 C-644.815 235.211 -644.805 224.25 -644.789 213.289 C-644.776 203.823 -644.771 194.356 -644.771 184.89 C-644.771 179.261 -644.769 173.633 -644.758 168.004 C-644.58 67.932 -644.58 67.932 -669.523 41.32 C-680.093 31.417 -693.532 27.081 -707.336 23.895 C-710.635 23.089 -713.798 22.125 -717 21 C-717 19.68 -717 18.36 -717 17 C-687.532 16.871 -658.065 16.743 -628.597 16.618 C-625.065 16.603 -621.533 16.588 -618.001 16.573 C-617.298 16.57 -616.595 16.567 -615.871 16.564 C-606.076 16.522 -596.281 16.479 -586.485 16.436 C-552.827 16.288 -519.168 16.152 -485.509 16.037 C-477.742 16.011 -469.974 15.98 -462.206 15.946 C-453.707 15.91 -445.207 15.881 -436.708 15.863 C-432.6 15.854 -428.493 15.842 -424.386 15.82 C-408.797 15.742 -393.274 15.93 -377.711 16.9 C-376.429 16.98 -375.146 17.06 -373.825 17.143 C-323.889 20.57 -271.473 35.731 -237 74 C-234.463 77.222 -232.199 80.542 -230 84 C-229.564 84.606 -229.129 85.212 -228.68 85.836 C-217.71 101.635 -215.05 122.134 -217.5 140.812 C-222.892 168.261 -240.136 190.457 -262.797 206.238 C-276.613 215.501 -291.413 222.317 -307 228 C-308.201 228.447 -309.403 228.895 -310.641 229.355 C-314.398 230.681 -318.18 231.874 -322 233 C-322.862 233.256 -323.724 233.512 -324.612 233.776 C-352.479 241.889 -381.343 245.767 -410 250 C-409.535 250.103 -409.535 250.103 -407.18 250.623 C-371.97 258.452 -371.97 258.452 -357 265 C-356.173 265.353 -355.346 265.705 -354.495 266.068 C-335.609 274.213 -319.291 285.322 -304 299 C-303.121 299.77 -302.242 300.539 -301.336 301.332 C-292.64 309.018 -284.571 317.035 -277.328 326.113 C-275.323 328.6 -273.262 331.023 -271.167 333.434 C-258.723 347.824 -248.135 363.572 -237.691 379.441 C-233.178 386.279 -228.462 392.965 -223.691 399.625 C-223.173 400.351 -222.654 401.076 -222.119 401.824 C-221.057 403.308 -219.992 404.79 -218.924 406.27 C-218.414 406.985 -217.904 407.7 -217.379 408.438 C-216.921 409.076 -216.463 409.714 -215.99 410.371 C-215 412 -215 412 -215 414 C-211.908 411.352 -210.252 408.036 -208.41 404.48 C-208.07 403.834 -207.729 403.188 -207.378 402.522 C-206.268 400.413 -205.165 398.3 -204.062 396.188 C-202.523 393.258 -200.98 390.33 -199.438 387.402 C-199.056 386.676 -198.674 385.95 -198.28 385.202 C-195.108 379.181 -191.851 373.209 -188.562 367.25 C-184.406 359.692 -180.464 352.051 -176.642 344.319 C-172.687 336.324 -168.527 328.444 -164.354 320.562 C-157.075 306.787 -149.912 292.962 -143 279 C-138.224 269.363 -133.428 259.745 -128.375 250.25 C-121.656 237.608 -115.342 224.758 -108.962 211.943 C-108.8 211.617 -108.8 211.617 -107.98 209.968 C-107.329 208.661 -106.679 207.354 -106.029 206.047 C-100.641 195.219 -95.155 184.443 -89.625 173.688 C-89.208 172.876 -88.792 172.065 -88.362 171.23 C-81.559 157.992 -74.687 144.795 -67.688 131.66 C-62.64 122.178 -57.767 112.625 -53 103 C-51.378 99.728 -49.752 96.457 -48.125 93.188 C-47.944 92.821 -47.944 92.821 -47.028 90.968 C-44.205 85.299 -41.269 79.693 -38.312 74.094 C-33.524 65.023 -28.815 55.913 -24.14 46.783 C-22.87 44.302 -21.597 41.822 -20.324 39.342 C-16.037 30.981 -11.777 22.609 -7.605 14.189 C-5.214 9.376 -2.689 4.653 0 0 Z M-602.625 43.25 C-619.555 60.732 -623.096 86.751 -625 110 C-625.083 110.999 -625.166 111.997 -625.252 113.026 C-626.065 123.828 -626.152 134.587 -626.158 145.416 C-626.162 147.428 -626.168 149.441 -626.173 151.453 C-626.184 155.76 -626.193 160.067 -626.199 164.373 C-626.21 171.207 -626.23 178.041 -626.252 184.875 C-626.314 204.298 -626.368 223.722 -626.401 243.146 C-626.42 253.895 -626.449 264.644 -626.489 275.393 C-626.51 281.062 -626.526 286.731 -626.528 292.4 C-626.552 338.037 -626.552 338.037 -630 357 C-630.127 357.727 -630.253 358.455 -630.384 359.204 C-631.073 363.155 -631.844 367.079 -632.688 371 C-632.912 372.084 -633.137 373.168 -633.369 374.285 C-633.904 376.859 -634.448 379.43 -635 382 C-632.37 379.405 -629.867 376.84 -627.5 374 C-625.126 371.151 -622.621 368.621 -620 366 C-618.947 364.883 -617.899 363.762 -616.855 362.637 C-610.553 355.848 -604.187 349.144 -597.613 342.617 C-597.067 342.074 -596.521 341.532 -595.958 340.973 C-593.221 338.257 -590.476 335.548 -587.723 332.848 C-586.711 331.848 -585.699 330.848 -584.688 329.848 C-583.784 328.961 -582.88 328.074 -581.949 327.16 C-580 325 -580 325 -580 323 C-579.413 322.735 -578.826 322.47 -578.221 322.197 C-575.93 320.962 -574.344 319.643 -572.469 317.848 C-571.823 317.236 -571.177 316.624 -570.512 315.994 C-570.18 315.675 -570.18 315.675 -568.5 314.062 C-567.179 312.802 -565.856 311.542 -564.531 310.285 C-563.949 309.727 -563.367 309.169 -562.768 308.594 C-561 307 -561 307 -558.921 305.95 C-556.391 303.382 -556.514 301.296 -556.47 297.796 C-556.474 297.367 -556.474 297.367 -556.499 295.201 C-556.493 294.29 -556.488 293.379 -556.482 292.441 C-556.468 289.376 -556.483 286.312 -556.498 283.247 C-556.495 281.054 -556.489 278.861 -556.482 276.668 C-556.468 270.696 -556.479 264.724 -556.496 258.751 C-556.509 252.491 -556.503 246.231 -556.499 239.971 C-556.497 229.437 -556.51 218.903 -556.533 208.37 C-556.557 197.572 -556.564 186.775 -556.554 175.977 C-556.541 162.941 -556.544 149.905 -556.56 136.869 C-556.565 131.907 -556.565 126.945 -556.561 121.983 C-556.556 116.111 -556.566 110.239 -556.588 104.367 C-556.593 102.228 -556.594 100.089 -556.589 97.95 C-556.541 75.08 -556.976 47.586 -573.75 29.875 C-581.649 23.292 -596.84 37.783 -602.625 43.25 Z M-31 90 C-32.336 92.499 -33.669 94.999 -35 97.5 C-35.362 98.177 -35.724 98.854 -36.098 99.551 C-40.213 107.293 -44.096 115.151 -48 123 C-65.962 159.08 -65.962 159.08 -71.062 168.625 C-75.339 176.649 -79.463 184.749 -83.551 192.871 C-84.292 194.341 -85.035 195.81 -85.78 197.277 C-89.758 205.118 -93.534 212.999 -96.898 221.125 C-97.041 221.469 -97.041 221.469 -97.764 223.21 C-103.555 237.499 -106.052 255.604 -101.105 270.582 C-98.998 275.191 -96.198 279.09 -93 283 C-92.51 283.626 -92.02 284.253 -91.516 284.898 C-82.984 294.618 -69.192 299.2 -57 302 C-56.094 302.213 -55.188 302.425 -54.254 302.645 C-44.056 304.856 -33.798 305.158 -23.4 305.388 C13.963 306.255 56.403 309.893 87.203 333.703 C89 335 89 335 91 335 C89.72 330.947 88.225 327.161 86.375 323.336 C85.842 322.231 85.309 321.127 84.76 319.989 C84.174 318.784 83.587 317.58 83 316.375 C82.386 315.109 81.772 313.842 81.158 312.575 C74.626 299.134 67.931 285.774 61.227 272.418 C61.049 272.063 61.049 272.063 60.148 270.27 C57.361 264.717 57.361 264.717 56.018 262.048 C51.009 252.092 46.109 242.087 41.235 232.064 C33.32 215.787 25.327 199.569 16.935 183.532 C12.48 174.998 8.288 166.364 4.195 157.652 C-0.78 147.064 -6.137 136.683 -11.64 126.361 C-15.225 119.62 -18.641 112.801 -22.028 105.959 C-23.677 102.635 -25.339 99.318 -27 96 C-28 94 -29 92 -30 90 C-30.33 90 -30.66 90 -31 90 Z " fill="#ffffff" transform="translate(1543,113)"/>
</svg>